<svg xmlns="http://www.w3.org/2000/svg" viewBox="0 0 1015.48 1029.59"><defs><style>.cls-1{fill:#333;}.cls-2{fill:gray;}.cls-3{fill:#1a1a1a;}.cls-4,.cls-5{fill:none;stroke:#000;stroke-miterlimit:10;}.cls-5{stroke-width:10px;}.cls-6{font-size:174px;font-family:Molot;}</style></defs><g id="レイヤー_3" data-name="レイヤー 3"><path class="cls-1" d="M1153.73,538.5c2.18,2.23,2.24,34.73,0,78.76-23.13,11.83-47.74,18.73-73.39,22.22a489.81,489.81,0,0,0,6.73-81.47c0-2.56,0-5.12-.06-7.67-60.41-5.13-98.78-47.6-89.43-98.21,5.35-28.95,25.45-55.81,53.42-74.88a388.52,388.52,0,0,0-50.08-84.64c30.08-3.54,51.93-10.2,50.14-13.85,14.75,9.2,39.45,38.63,60.6,82.81l-74.42,84.28s4.79,47.06,25,64.15,91.5,24.87,91.5,24.87Z" transform="translate(-140.61 -142.19)"/><path class="cls-2" d="M1087,550.34c0,2.55.06,5.11.06,7.67a489.81,489.81,0,0,1-6.73,81.47,139.09,139.09,0,0,0-44.11,7,101.36,101.36,0,0,0-36.79,21.39c-38.9,36.23-31.74,95.82,17.93,136.07-.46.72-.93,1.43-1.41,2.15a389.58,389.58,0,0,1-64.44,75.5l0-.06A91.92,91.92,0,0,0,936,866.21c-20.08-17.2-43.61-27.94-67.21-29.08-54-2.6-92,45.69-84.58,110.92a158,158,0,0,0,2.93,17.09,315,315,0,0,1-110.24,1.68,308,308,0,0,1-54.5-14c15.19-22.41,23.38-47.89,21.29-72.84-3.79-45.14-39.93-72.7-86.39-73.43A138.66,138.66,0,0,0,511,814.1,163,163,0,0,0,467,837a405.81,405.81,0,0,1-40.11-63.82c23.29-17.56,40.26-41,45.77-67.19,11.27-53.64-30.22-96.21-91.76-100.81q-1-15.13-1.06-30.45a452.17,452.17,0,0,1,12.75-106.23c27.12,5.07,54.27,2.26,76.56-10a81.16,81.16,0,0,0,20.35-15.7h0c31.12-33.31,26.07-88.42-14.38-132.27q-2.69-2.91-5.49-5.65a394.88,394.88,0,0,1,54.83-59c20.91,28.75,50.31,49,82.13,52.65a78.66,78.66,0,0,0,36.51-4.12c38.23-14.13,61-58.88,54-113.12a159.92,159.92,0,0,0-2.86-15.81,313.06,313.06,0,0,1,149.43,13.3c-13.52,21.89-20.42,46.08-18.27,69,5,53.78,58.24,84.59,121.76,68a161.16,161.16,0,0,0,49.79-22.77l4-.45A388.52,388.52,0,0,1,1051,377.25c-28,19.07-48.07,45.93-53.42,74.88C988.23,502.74,1026.6,545.21,1087,550.34Zm-190.3,12.82c.07-2.1.1-4.2.1-6.32,0-90.62-55.21-160.34-126.69-175.56a143.8,143.8,0,0,0-34.41-3.64,140.84,140.84,0,0,0-15,.92c-26.22,3-50.55,13-71.7,28.23-1.11.79-2.21,1.6-3.29,2.42-22.92,17.25-41.85,40.63-55.1,67.72-.39.79-.77,1.58-1.15,2.38A211.17,211.17,0,0,0,569,570.1c0,96.2,65.68,176,151.73,178.47,1.8,0,3.59.06,5.37,0,3,.06,6.08,0,9.09-.11l.77,0c1.14-.05,2.28-.12,3.42-.2.75,0,1.5-.11,2.24-.18,83.26-7.2,152.14-84.83,155-183.4C896.69,564.18,896.7,563.67,896.71,563.16Z" transform="translate(-140.61 -142.19)"/><path class="cls-1" d="M1036.23,646.5c-75.79,68.78,36.85,140.2,35.39,142.81-19.77,11.25-38.51,17.73-55.63,16.82l0,0c.48-.72.95-1.43,1.41-2.15-49.67-40.25-56.83-99.84-17.93-136.07A101.36,101.36,0,0,1,1036.23,646.5Z" transform="translate(-140.61 -142.19)"/><path class="cls-1" d="M1071.62,789.31l-39.43,59.15c-21,18.46-50.06,26.79-80.67,33.15a389.58,389.58,0,0,0,64.44-75.5l0,0C1033.11,807,1051.85,800.56,1071.62,789.31Z" transform="translate(-140.61 -142.19)"/><path class="cls-2" d="M999.74,291.09c.4.51.8,1,1.18,1.52l-4,.45C997.87,292.41,998.81,291.75,999.74,291.09Z" transform="translate(-140.61 -142.19)"/><path class="cls-1" d="M996.92,293.06a161.16,161.16,0,0,1-49.79,22.77c-63.52,16.54-116.71-14.27-121.76-68-2.15-22.95,4.75-47.14,18.27-69a313.06,313.06,0,0,0-149.43-13.3l55.65-21c22.62-5.12,96.13,1.32,136.92,17.39,0,0-40.4,98.21,38,130.76C948.94,296,974.87,295.39,996.92,293.06Z" transform="translate(-140.61 -142.19)"/><path class="cls-2" d="M936,866.21a91.92,91.92,0,0,1,15.51,15.34A151.58,151.58,0,0,0,936,866.21Z" transform="translate(-140.61 -142.19)"/><path class="cls-1" d="M868.75,837.13c23.6,1.14,47.13,11.88,67.21,29.08A78.4,78.4,0,0,0,912,853c-24.65-8-34.79-5.28-41.27-4.25-6,1-23.64,7.74-34.15,23.65-9.72,14.71-6.42,70.54-6.42,70.54l-43,22.18a158,158,0,0,1-2.93-17.09C776.78,882.82,814.8,834.53,868.75,837.13Z" transform="translate(-140.61 -142.19)"/><path class="cls-3" d="M896.77,558.18q0,2.51-.06,5c0,.51,0,1,0,1.52-3.48,98.64-72.46,176.09-155,183.4-.74.07-1.49.13-2.24.18-1.13.08-2.28.15-3.42.2l-.77,0q-6,.25-12,0c-87-3.44-153.51-84.13-153.51-180.43a208,208,0,0,1,19.85-88.78c.38-.8.76-1.59,1.15-2.38,13.35-27.07,32.28-50.45,55.1-67.72,1.08-.82,2.18-1.63,3.29-2.42,21.77-15.58,46.94-25.71,74.12-28.43q6.33-.63,12.56-.72a140.27,140.27,0,0,1,24.53,1.89c3.32.47,6.62,1.05,9.88,1.75C841.8,397.73,896.77,468.16,896.77,558.18Zm-25.58-2.89c0-93.31-68.52-162.24-148.29-154.41-75,7.35-132.53,80.6-132.53,164s57.55,152.72,132.53,155C802.67,722.21,871.19,648.61,871.19,555.29Z" transform="translate(-140.61 -142.19)"/><path class="cls-1" d="M896.67,564.68c-2.91,98.57-71.79,176.2-155,183.4C824.21,740.77,893.19,663.32,896.67,564.68Z" transform="translate(-140.61 -142.19)"/><path class="cls-1" d="M722.9,400.88c79.77-7.83,148.29,61.1,148.29,154.41S802.67,722.21,722.9,719.83c-75-2.24-132.53-71.57-132.53-155S647.92,408.23,722.9,400.88ZM865.44,552.51c0-79.88-45.68-141.42-100.66-137.56-53.53,3.76-95.9,68.43-95.9,144.53s42.37,137.75,95.9,137.72C819.76,697.17,865.44,632.39,865.44,552.51Z" transform="translate(-140.61 -142.19)"/><path class="cls-1" d="M770.12,381.28c-3.26-.7-6.56-1.28-9.88-1.75a140.27,140.27,0,0,0-24.53-1.89A143.8,143.8,0,0,1,770.12,381.28Z" transform="translate(-140.61 -142.19)"/><path class="cls-1" d="M739.38,748.26c-1.14.08-2.28.15-3.42.2C737.1,748.41,738.25,748.34,739.38,748.26Z" transform="translate(-140.61 -142.19)"/><path class="cls-1" d="M569.64,240.93s36.94,57.57,73.45,53.45a78.66,78.66,0,0,1-36.51,4.12c-31.82-3.6-61.22-23.9-82.13-52.65Z" transform="translate(-140.61 -142.19)"/><path class="cls-1" d="M590.64,476.93c13.25-27.09,32.18-50.47,55.1-67.72C622.92,426.48,604,449.86,590.64,476.93Z" transform="translate(-140.61 -142.19)"/><path class="cls-1" d="M511,814.1a138.66,138.66,0,0,1,46.27-7.58C529.53,820.21,495.68,826.6,467,837A163,163,0,0,1,511,814.1Z" transform="translate(-140.61 -142.19)"/><path class="cls-1" d="M489.47,442.75a81.16,81.16,0,0,1-20.35,15.7c-22.29,12.29-49.44,15.1-76.56,10l41.94-14.32S454.69,459.38,489.47,442.75Z" transform="translate(-140.61 -142.19)"/><path class="cls-4" d="M951.52,881.61a389.58,389.58,0,0,0,64.44-75.5c.48-.72.95-1.43,1.41-2.15-49.67-40.25-56.83-99.84-17.93-136.07a101.36,101.36,0,0,1,36.79-21.39,139.09,139.09,0,0,1,44.11-7,489.81,489.81,0,0,0,6.73-81.47c0-2.56,0-5.12-.06-7.67-60.41-5.13-98.78-47.6-89.43-98.21,5.35-28.95,25.45-55.81,53.42-74.88a388.52,388.52,0,0,0-50.08-84.64c-.38-.51-.78-1-1.18-1.52-.93.66-1.87,1.32-2.82,2a161.16,161.16,0,0,1-49.79,22.77c-63.52,16.54-116.71-14.27-121.76-68-2.15-22.95,4.75-47.14,18.27-69a313.06,313.06,0,0,0-149.43-13.3,159.92,159.92,0,0,1,2.86,15.81c7,54.24-15.75,99-54,113.12a78.66,78.66,0,0,1-36.51,4.12c-31.82-3.6-61.22-23.9-82.13-52.65a394.88,394.88,0,0,0-54.83,59q2.81,2.74,5.49,5.65c40.45,43.85,45.5,99,14.38,132.27" transform="translate(-140.61 -142.19)"/><path class="cls-4" d="M489.47,442.75a81.16,81.16,0,0,1-20.35,15.7c-22.29,12.29-49.44,15.1-76.56,10a452.17,452.17,0,0,0-12.75,106.23q0,15.31,1.06,30.45c61.54,4.6,103,47.17,91.76,100.81-5.51,26.21-22.48,49.63-45.77,67.19A405.81,405.81,0,0,0,467,837a163,163,0,0,1,44-22.88,138.66,138.66,0,0,1,46.27-7.58c46.46.73,82.6,28.29,86.39,73.43,2.09,24.95-6.1,50.43-21.29,72.84a308,308,0,0,0,54.5,14,315,315,0,0,0,110.24-1.68,158,158,0,0,1-2.93-17.09c-7.39-65.23,30.63-113.52,84.58-110.92,23.6,1.14,47.13,11.88,67.21,29.08a151.58,151.58,0,0,1,15.51,15.34" transform="translate(-140.61 -142.19)"/><path class="cls-4" d="M770.12,381.28c71.48,15.22,126.69,84.94,126.69,175.56,0,2.12,0,4.22-.1,6.32" transform="translate(-140.61 -142.19)"/><path class="cls-4" d="M649,406.79c21.15-15.21,45.48-25.23,71.7-28.23a140.84,140.84,0,0,1,15-.92" transform="translate(-140.61 -142.19)"/><path class="cls-4" d="M735.19,748.5c-3,.13-6.05.17-9.09.11-1.78,0-3.57,0-5.37,0C634.68,746.14,569,666.3,569,570.1a211.17,211.17,0,0,1,20.49-90.79" transform="translate(-140.61 -142.19)"/><path class="cls-5" d="M735.71,377.64q-6.23.09-12.56.72C696,381.08,670.8,391.21,649,406.79c-1.11.79-2.21,1.6-3.29,2.42-22.92,17.25-41.85,40.63-55.1,67.72-.39.79-.77,1.58-1.15,2.38a208,208,0,0,0-19.85,88.78c0,96.3,66.47,177,153.51,180.43q6.06.24,12,0l.77,0c1.14-.05,2.28-.12,3.42-.2.75,0,1.5-.11,2.24-.18,83.26-7.2,152.14-84.83,155-183.4,0-.5,0-1,0-1.52q.06-2.48.06-5c0-90-55-160.45-126.65-176.9A143.8,143.8,0,0,0,735.71,377.64Z" transform="translate(-140.61 -142.19)"/><path class="cls-5" d="M722.9,719.83c79.77,2.38,148.29-71.22,148.29-164.54S802.67,393.05,722.9,400.88c-75,7.35-132.53,80.6-132.53,164S647.92,717.59,722.9,719.83Z" transform="translate(-140.61 -142.19)"/><path class="cls-5" d="M764.78,697.2c-53.53,0-95.9-61.63-95.9-137.72S711.25,418.71,764.78,415c55-3.86,100.66,57.68,100.66,137.56S819.76,697.17,764.78,697.2Z" transform="translate(-140.61 -142.19)"/><path class="cls-4" d="M787.1,965.14l43-22.18s-3.3-55.83,6.42-70.54c10.51-15.91,28.18-22.69,34.15-23.65,6.48-1,16.62-3.76,41.27,4.25a78.4,78.4,0,0,1,24,13.19,91.92,91.92,0,0,1,15.51,15.34l0,.06c30.61-6.36,59.66-14.69,80.67-33.15l39.43-59.15c-19.77,11.25-38.51,17.73-55.63,16.82" transform="translate(-140.61 -142.19)"/><path class="cls-4" d="M1071.62,789.31c1.46-2.61-111.18-74-35.39-142.81" transform="translate(-140.61 -142.19)"/><path class="cls-4" d="M1080.34,639.48c25.65-3.49,50.26-10.39,73.39-22.22,2.24-44,2.18-76.53,0-78.76v-3.63s-71.29-7.77-91.5-24.87-25-64.15-25-64.15l74.42-84.28c-21.15-44.18-45.85-73.61-60.6-82.81,1.79,3.65-20.06,10.31-50.14,13.85l-4,.45c-22,2.33-48,2.92-72.12-.5-78.42-32.55-38-130.76-38-130.76-40.79-16.07-114.3-22.51-136.92-17.39l-55.65,21" transform="translate(-140.61 -142.19)"/><path class="cls-4" d="M524.45,245.85l45.19-4.92s36.94,57.57,73.45,53.45" transform="translate(-140.61 -142.19)"/><path class="cls-4" d="M392.56,468.48l41.94-14.32s20.19,5.22,55-11.41h0" transform="translate(-140.61 -142.19)"/><path class="cls-4" d="M467,837c28.71-10.38,62.56-16.77,90.29-30.46" transform="translate(-140.61 -142.19)"/><path class="cls-1" d="M614.2,718.54c1.33,1.36,1.37,21.22,0,48.13a138.49,138.49,0,0,1-44.84,13.57,299.11,299.11,0,0,0,4.11-49.78c0-1.57,0-3.13,0-4.68-36.91-3.14-60.35-29.09-54.64-60,3.27-17.69,15.55-34.11,32.64-45.76a237.1,237.1,0,0,0-30.6-51.72c18.38-2.16,31.73-6.23,30.64-8.46,9,5.62,24.1,23.61,37,50.6L543,661.93s2.93,28.75,15.28,39.2,55.9,15.19,55.9,15.19Z" transform="translate(-140.61 -142.19)"/><path class="cls-2" d="M208.32,660c19-20.35,16-54-8.78-80.83-1.08-1.19-2.21-2.34-3.35-3.46a241.45,241.45,0,0,1,33.5-36c12.78,17.57,30.74,30,50.19,32.17a48,48,0,0,0,22.3-2.51c23.36-8.64,37.27-36,33-69.12a96.62,96.62,0,0,0-1.75-9.66,191.31,191.31,0,0,1,91.31,8.12c-8.26,13.38-12.48,28.16-11.17,42.18,3.09,32.86,35.59,51.69,74.4,41.58a98.27,98.27,0,0,0,30.42-13.91l2.45-.28A237.1,237.1,0,0,1,551.43,620c-17.09,11.65-29.37,28.07-32.64,45.76-5.71,30.92,17.73,56.87,54.64,60,0,1.55,0,3.11,0,4.68a299.11,299.11,0,0,1-4.11,49.78,85.2,85.2,0,0,0-27,4.29,62,62,0,0,0-22.48,13.07c-23.77,22.14-19.4,58.55,11,83.15-.28.44-.57.87-.86,1.31a237.79,237.79,0,0,1-39.37,46.13l0,0a55.63,55.63,0,0,0-9.41-9.34c-12.28-10.53-26.69-17.11-41.13-17.81-33-1.59-56.2,27.92-51.67,67.78a91.42,91.42,0,0,0,1.79,10.44,192.45,192.45,0,0,1-67.37,1,190,190,0,0,1-33.3-8.57c9.28-13.7,14.28-29.27,13-44.51-2.32-27.58-24.4-44.42-52.79-44.87a84.69,84.69,0,0,0-28.27,4.63,99.47,99.47,0,0,0-26.89,14,247.53,247.53,0,0,1-24.52-39c14.24-10.73,24.6-25,28-41.06,6.88-32.78-18.47-58.79-56.06-61.6q-.65-9.24-.66-18.6a275.67,275.67,0,0,1,7.8-64.91c16.56,3.09,33.15,1.38,46.77-6.13A49.55,49.55,0,0,0,208.32,660Zm248.83,73.57c.05-1.28.07-2.57.07-3.86,0-55.36-33.72-98-77.38-107.27a87.66,87.66,0,0,0-20-2.24H359a87,87,0,0,0-9.34.57,93.14,93.14,0,0,0-43.82,17.25c-.67.48-1.34,1-2,1.48A114.94,114.94,0,0,0,270,681.16c-.39.79-.77,1.59-1.14,2.39a129.1,129.1,0,0,0-12,54.3c0,58.78,40.13,107.57,92.71,109,1.1,0,2.19,0,3.28,0,1.88,0,3.76,0,5.62-.07l.46,0,1.94-.11c.49,0,1-.07,1.45-.12,50.88-4.4,93-51.83,94.75-112.06C457.14,734.23,457.15,733.92,457.15,733.61Z" transform="translate(-140.61 -142.19)"/><path class="cls-1" d="M542.41,784.53c-46.31,42,22.52,85.67,21.62,87.26-12.08,6.88-23.53,10.84-34,10.28h0c.29-.44.58-.87.86-1.31-30.35-24.6-34.72-61-11-83.15A62,62,0,0,1,542.41,784.53Z" transform="translate(-140.61 -142.19)"/><path class="cls-1" d="M564,871.79l-24.09,36.14c-12.84,11.29-30.58,16.38-49.29,20.26A237.79,237.79,0,0,0,530,882.06h0C540.5,882.63,552,878.67,564,871.79Z" transform="translate(-140.61 -142.19)"/><path class="cls-2" d="M520.11,567.37c.24.31.49.61.72.92l-2.45.28Z" transform="translate(-140.61 -142.19)"/><path class="cls-1" d="M518.38,568.57A98.27,98.27,0,0,1,488,582.48c-38.81,10.11-71.31-8.72-74.4-41.58-1.31-14,2.91-28.8,11.17-42.18a191.31,191.31,0,0,0-91.31-8.12l34-12.86c13.83-3.13,58.74.81,83.67,10.63,0,0-24.69,60,23.23,79.89C489.07,570.35,504.91,570,518.38,568.57Z" transform="translate(-140.61 -142.19)"/><path class="cls-2" d="M481.2,918.82a55.63,55.63,0,0,1,9.41,9.34A93.15,93.15,0,0,0,481.2,918.82Z" transform="translate(-140.61 -142.19)"/><path class="cls-1" d="M440.07,901c14.44.7,28.85,7.28,41.13,17.81a48.24,48.24,0,0,0-14.73-8.1c-15.06-4.89-21.25-3.22-25.21-2.59-3.65.58-14.44,4.73-20.87,14.45-5.93,9-3.92,43.1-3.92,43.1l-26.28,13.55a91.42,91.42,0,0,1-1.79-10.44C383.87,928.93,407.11,899.42,440.07,901Z" transform="translate(-140.61 -142.19)"/><path class="cls-3" d="M457.19,730.57c0,1,0,2,0,3,0,.31,0,.62,0,.93C455,794.8,412.85,842.14,362.38,846.6c-.48,0-1,.09-1.45.12l-1.94.11-.46,0c-2.45.11-4.93.12-7.42,0-53.19-2.1-93.81-51.41-93.81-110.25a127.11,127.11,0,0,1,11.58-53.07c.37-.8.75-1.6,1.14-2.39a116.27,116.27,0,0,1,33.78-41.62c.67-.5,1.34-1,2-1.48a93.68,93.68,0,0,1,45.3-17.37q4-.39,7.86-.45h.82a85.17,85.17,0,0,1,14,1.17c2,.28,4.07.64,6.07,1.07C423.62,632.55,457.19,675.57,457.19,730.57Zm-15.62-1.77c0-57-41.87-99.13-90.62-94.35-45.81,4.49-81,49.25-81,100.2s35.16,93.32,81,94.69C399.7,830.79,441.57,785.82,441.57,728.8Z" transform="translate(-140.61 -142.19)"/><path class="cls-1" d="M457.13,734.54c-1.78,60.23-43.87,107.66-94.75,112.06C412.85,842.14,455,794.8,457.13,734.54Z" transform="translate(-140.61 -142.19)"/><path class="cls-1" d="M351,634.45c48.75-4.78,90.62,37.33,90.62,94.35S399.7,830.79,351,829.34c-45.81-1.37-81-43.73-81-94.69S305.14,638.94,351,634.45Zm87.1,92.65c0-48.81-27.91-86.41-61.51-84.05-32.71,2.3-58.6,41.81-58.6,88.31s25.89,84.17,58.6,84.15C410.14,815.49,438.05,775.9,438.05,727.1Z" transform="translate(-140.61 -142.19)"/><path class="cls-1" d="M379.84,622.48c-2-.43-4-.79-6.07-1.07a85.17,85.17,0,0,0-14-1.17A87.66,87.66,0,0,1,379.84,622.48Z" transform="translate(-140.61 -142.19)"/><path class="cls-1" d="M360.93,846.72l-1.94.11Z" transform="translate(-140.61 -142.19)"/><path class="cls-1" d="M257.3,536.72s22.58,35.17,44.88,32.66a48,48,0,0,1-22.3,2.51c-19.45-2.2-37.41-14.6-50.19-32.17Z" transform="translate(-140.61 -142.19)"/><path class="cls-1" d="M270,681.16a114.94,114.94,0,0,1,33.78-41.62A116.27,116.27,0,0,0,270,681.16Z" transform="translate(-140.61 -142.19)"/><path class="cls-1" d="M221.47,886.94a84.69,84.69,0,0,1,28.27-4.63c-16.94,8.36-37.63,12.27-55.16,18.61A99.47,99.47,0,0,1,221.47,886.94Z" transform="translate(-140.61 -142.19)"/><path class="cls-1" d="M208.32,660a49.55,49.55,0,0,1-12.44,9.59c-13.62,7.51-30.21,9.22-46.77,6.13L174.73,667S187.07,670.2,208.32,660Z" transform="translate(-140.61 -142.19)"/><path class="cls-4" d="M490.65,928.19A237.79,237.79,0,0,0,530,882.06c.29-.44.58-.87.86-1.31-30.35-24.6-34.72-61-11-83.15a62,62,0,0,1,22.48-13.07,85.2,85.2,0,0,1,27-4.29,299.11,299.11,0,0,0,4.11-49.78c0-1.57,0-3.13,0-4.68-36.91-3.14-60.35-29.09-54.64-60,3.27-17.69,15.55-34.11,32.64-45.76a237.1,237.1,0,0,0-30.6-51.72c-.23-.31-.48-.61-.72-.92l-1.73,1.2A98.27,98.27,0,0,1,488,582.48c-38.81,10.11-71.31-8.72-74.4-41.58-1.31-14,2.91-28.8,11.17-42.18a191.31,191.31,0,0,0-91.31-8.12,96.62,96.62,0,0,1,1.75,9.66c4.28,33.14-9.63,60.48-33,69.12a48,48,0,0,1-22.3,2.51c-19.45-2.2-37.41-14.6-50.19-32.17a241.45,241.45,0,0,0-33.5,36c1.14,1.12,2.27,2.27,3.35,3.46,24.73,26.8,27.81,60.48,8.78,80.83a49.55,49.55,0,0,1-12.44,9.59c-13.62,7.51-30.21,9.22-46.77,6.13a275.67,275.67,0,0,0-7.8,64.91q0,9.35.66,18.6c37.59,2.81,62.94,28.82,56.06,61.6-3.37,16-13.73,30.33-28,41.06a247.53,247.53,0,0,0,24.52,39,99.47,99.47,0,0,1,26.89-14,84.69,84.69,0,0,1,28.27-4.63c28.39.45,50.47,17.29,52.79,44.87,1.27,15.24-3.73,30.81-13,44.51a190,190,0,0,0,33.3,8.57,192.45,192.45,0,0,0,67.37-1,91.42,91.42,0,0,1-1.79-10.44c-4.53-39.86,18.71-69.37,51.67-67.78,14.44.7,28.85,7.28,41.13,17.81a93.15,93.15,0,0,1,9.41,9.34" transform="translate(-140.61 -142.19)"/><path class="cls-4" d="M379.84,622.48c43.66,9.31,77.38,51.91,77.38,107.27,0,1.29,0,2.58-.07,3.86" transform="translate(-140.61 -142.19)"/><path class="cls-4" d="M305.81,638.06a93.14,93.14,0,0,1,43.82-17.25,87,87,0,0,1,9.34-.57" transform="translate(-140.61 -142.19)"/><path class="cls-4" d="M358.53,846.85c-1.86.09-3.74.11-5.62.07-1.09,0-2.18,0-3.28,0-52.58-1.48-92.71-50.27-92.71-109a129.1,129.1,0,0,1,12-54.3" transform="translate(-140.61 -142.19)"/><path class="cls-5" d="M359,620.24q-3.9.06-7.86.45a93.68,93.68,0,0,0-45.3,17.37c-.67.48-1.34,1-2,1.48A114.94,114.94,0,0,0,270,681.16c-.39.79-.77,1.59-1.14,2.39a127.11,127.11,0,0,0-11.58,53.07c0,58.84,40.62,108.15,93.81,110.25,2.49.1,5,.09,7.42,0l.46,0,1.94-.11c.49,0,1-.07,1.45-.12,50.88-4.4,93-51.83,94.75-112.06,0-.31,0-.62,0-.93,0-1,0-2,0-3,0-55-33.57-98-77.35-108.09a87.66,87.66,0,0,0-20-2.24" transform="translate(-140.61 -142.19)"/><path class="cls-5" d="M351,829.34c48.75,1.45,90.62-43.52,90.62-100.54S399.7,629.67,351,634.45c-45.81,4.49-81,49.25-81,100.2S305.14,828,351,829.34Z" transform="translate(-140.61 -142.19)"/><path class="cls-5" d="M376.54,815.51c-32.71,0-58.6-37.66-58.6-84.15s25.89-86,58.6-88.31c33.6-2.36,61.51,35.24,61.51,84.05S410.14,815.49,376.54,815.51Z" transform="translate(-140.61 -142.19)"/><path class="cls-4" d="M390.19,979.23l26.28-13.55s-2-34.12,3.92-43.1c6.43-9.72,17.22-13.87,20.87-14.45,4-.63,10.15-2.3,25.21,2.59a48.24,48.24,0,0,1,14.73,8.1,55.63,55.63,0,0,1,9.41,9.34l0,0c18.71-3.88,36.45-9,49.29-20.26L564,871.79c-12.08,6.88-23.53,10.84-34,10.28" transform="translate(-140.61 -142.19)"/><path class="cls-4" d="M564,871.79c.9-1.59-67.93-45.23-21.62-87.26" transform="translate(-140.61 -142.19)"/><path class="cls-4" d="M569.36,780.24a138.49,138.49,0,0,0,44.84-13.57c1.37-26.91,1.33-46.77,0-48.13v-2.22s-43.56-4.75-55.9-15.19S543,661.93,543,661.93l45.48-51.5c-12.93-27-28-45-37-50.6,1.09,2.23-12.26,6.3-30.64,8.46l-2.45.28c-13.47,1.42-29.31,1.78-44.06-.31-47.92-19.89-23.23-79.89-23.23-79.89-24.93-9.82-69.84-13.76-83.67-10.63l-34,12.86" transform="translate(-140.61 -142.19)"/><path class="cls-4" d="M229.69,539.72l27.61-3s22.58,35.17,44.88,32.66" transform="translate(-140.61 -142.19)"/><path class="cls-4" d="M149.11,675.76,174.73,667s12.34,3.19,33.59-7h0" transform="translate(-140.61 -142.19)"/><path class="cls-4" d="M194.58,900.92c17.53-6.34,38.22-10.25,55.16-18.61" transform="translate(-140.61 -142.19)"/></g><g id="レイヤー_4" data-name="レイヤー 4"><text class="cls-6" transform="translate(0 994.79)">Monozukuri</text></g></svg>